# xmcd
#
# Track frame offsets:
#	150
#	13897
#	33304
#	52138
#	67163
#	81761
#	100679
#	113335
#
# Disc length: 2040 seconds
#
# Revision: 1
# Processed by: cddbd v1.5.2PL0 Copyright (c) Steve Scherf et al.
# Submitted via: audiograbber 1.83.01
#
DISCID=6207f608
DTITLE=Sugarhigh - Spuds
DYEAR=1900
DGENRE=Rock
TTITLE0=Flirting with Madness
TTITLE1=Personal Disaster
TTITLE2=Shameless Pain
TTITLE3=Isn't it Strange
TTITLE4=Whe Hole of Regret
TTITLE5=Waiting
TTITLE6=Seeing You, Seeing Me
TTITLE7=Questions
EXTD=
EXTT0=
EXTT1=
EXTT2=
EXTT3=
EXTT4=
EXTT5=
EXTT6=
EXTT7=
PLAYORDER=
